<?xml version="1.0" encoding="UTF-8"?>
<svg xmlns="http://www.w3.org/2000/svg" xmlns:xlink="http://www.w3.org/1999/xlink" width="10" height="20" viewBox="0 0 24 32" version="1.1">
<g id="surface1">
<path style=" stroke:none;fill-rule:nonzero;fill:rgb(0%,0%,0%);fill-opacity:1;" d="M 4 2 C 1.792969 2 0 3.792969 0 6 C 0 7.476562 0.808594 8.75 2 9.445312 L 2 22.554688 C 0.808594 23.25 0 24.523438 0 26 C 0 28.207031 1.792969 30 4 30 C 6.207031 30 8 28.207031 8 26 C 8 24.523438 7.191406 23.25 6 22.554688 L 6 9.445312 C 7.191406 8.75 8 7.476562 8 6 C 8 3.792969 6.207031 2 4 2 Z M 4 28 C 2.898438 28 2 27.105469 2 26 C 2 24.898438 2.898438 24 4 24 C 5.105469 24 6 24.898438 6 26 C 6 27.105469 5.105469 28 4 28 Z M 4 8 C 2.898438 8 2 7.105469 2 6 C 2 4.894531 2.898438 4 4 4 C 5.105469 4 6 4.894531 6 6 C 6 7.105469 5.105469 8 4 8 Z M 22 22.554688 L 22 10 C 22 3.984375 16 4 16 4 L 14 4 L 14 0 L 8 6 L 14 12 L 14 8 C 14 8 14.835938 8 16 8 C 17.765625 8 18 10 18 10 L 18 22.554688 C 16.808594 23.25 16 24.523438 16 26 C 16 28.207031 17.792969 30 20 30 C 22.207031 30 24 28.207031 24 26 C 24 24.523438 23.191406 23.25 22 22.554688 Z M 20 28 C 18.898438 28 18 27.105469 18 26 C 18 24.898438 18.898438 24 20 24 C 21.105469 24 22 24.898438 22 26 C 22 27.105469 21.105469 28 20 28 Z M 20 28 "/>
</g>
</svg>
